<svg width="888" height="122" viewBox="0 0 888 122" fill="none" xmlns="http://www.w3.org/2000/svg">
<path d="M184.992 79.616H172.896V101H157.992V27.56H184.992C202.416 27.56 211.128 36.056 211.128 53.048C211.128 61.616 208.896 68.204 204.432 72.812C200.04 77.348 193.56 79.616 184.992 79.616ZM172.896 66.872H184.884C192.3 66.872 196.008 62.264 196.008 53.048C196.008 48.512 195.108 45.272 193.308 43.328C191.508 41.312 188.7 40.304 184.884 40.304H172.896V66.872ZM218.134 101V47H232.498V52.724C238.546 49.124 244.306 46.784 249.778 45.704V60.284C243.946 61.508 238.942 62.768 234.766 64.064L232.606 64.82V101H218.134ZM256.157 101V47H270.629V101H256.157ZM256.157 40.088V25.4H270.629V40.088H256.157ZM296.313 101H281.841V47H296.205V50.024C301.173 47.144 305.421 45.704 308.949 45.704C314.781 45.704 319.281 47.396 322.449 50.78C329.073 47.396 335.121 45.704 340.593 45.704C347.721 45.704 352.653 47.792 355.389 51.968C358.197 56.072 359.601 62.66 359.601 71.732V101H345.129V72.164C345.129 67.556 344.625 64.172 343.617 62.012C342.609 59.78 340.593 58.664 337.569 58.664C335.265 58.664 332.457 59.168 329.145 60.176L327.525 60.716C327.813 66.116 327.957 70.22 327.957 73.028V101H313.485V73.244C313.485 67.916 313.017 64.172 312.081 62.012C311.145 59.78 309.093 58.664 305.925 58.664C303.117 58.664 300.345 59.168 297.609 60.176L296.313 60.608V101ZM382.159 80.156C382.231 83.468 383.095 85.88 384.751 87.392C386.479 88.832 388.927 89.552 392.095 89.552C398.791 89.552 404.767 89.336 410.023 88.904L413.047 88.58L413.263 99.272C404.983 101.288 397.495 102.296 390.799 102.296C382.663 102.296 376.759 100.136 373.087 95.816C369.415 91.496 367.579 84.476 367.579 74.756C367.579 55.388 375.535 45.704 391.447 45.704C407.143 45.704 414.991 53.84 414.991 70.112L413.911 80.156H382.159ZM400.735 69.14C400.735 64.82 400.051 61.832 398.683 60.176C397.315 58.448 394.903 57.584 391.447 57.584C388.063 57.584 385.651 58.484 384.211 60.284C382.843 62.012 382.123 64.964 382.051 69.14H400.735ZM492.588 99.812C484.956 101.468 478.08 102.296 471.96 102.296C465.84 102.296 460.944 101.54 457.272 100.028C453.6 98.516 450.72 96.104 448.632 92.792C446.544 89.48 445.104 85.592 444.312 81.128C443.52 76.664 443.124 71.048 443.124 64.28C443.124 50.096 445.104 40.232 449.064 34.688C453.096 29.072 460.476 26.264 471.204 26.264C477.396 26.264 484.56 27.236 492.696 29.18L492.264 41.06C485.136 39.98 479.196 39.44 474.444 39.44C469.764 39.44 466.416 40.088 464.4 41.384C462.384 42.608 460.872 44.984 459.864 48.512C458.928 52.04 458.46 58.052 458.46 66.548C458.46 75.044 459.432 80.948 461.376 84.26C463.392 87.5 467.352 89.12 473.256 89.12C479.232 89.12 485.568 88.616 492.264 87.608L492.588 99.812ZM503.297 53.156C507.113 48.188 513.485 45.704 522.413 45.704C531.341 45.704 537.713 48.188 541.529 53.156C545.345 58.052 547.253 64.964 547.253 73.892C547.253 92.828 538.973 102.296 522.413 102.296C505.853 102.296 497.573 92.828 497.573 73.892C497.573 64.964 499.481 58.052 503.297 53.156ZM514.421 86.096C515.933 88.688 518.597 89.984 522.413 89.984C526.229 89.984 528.857 88.688 530.297 86.096C531.809 83.504 532.565 79.436 532.565 73.892C532.565 68.348 531.809 64.316 530.297 61.796C528.857 59.276 526.229 58.016 522.413 58.016C518.597 58.016 515.933 59.276 514.421 61.796C512.981 64.316 512.261 68.348 512.261 73.892C512.261 79.436 512.981 83.504 514.421 86.096ZM570.173 101H555.701V47H570.065V50.024C574.961 47.144 579.461 45.704 583.565 45.704C590.765 45.704 595.733 47.828 598.469 52.076C601.205 56.324 602.573 62.876 602.573 71.732V101H588.101V72.164C588.101 67.556 587.561 64.172 586.481 62.012C585.401 59.78 583.241 58.664 580.001 58.664C577.049 58.664 574.205 59.168 571.469 60.176L570.173 60.608V101ZM643.152 59.312H629.868V81.452C629.868 83.612 629.904 85.16 629.976 86.096C630.12 86.96 630.516 87.716 631.164 88.364C631.884 89.012 632.964 89.336 634.404 89.336L642.612 89.12L643.26 100.676C638.436 101.756 634.764 102.296 632.244 102.296C625.764 102.296 621.336 100.856 618.96 97.976C616.584 95.024 615.396 89.624 615.396 81.776V59.312H609.024V47H615.396V31.988H629.868V47H643.152V59.312ZM650.416 101V47H664.78V52.724C670.828 49.124 676.588 46.784 682.06 45.704V60.284C676.228 61.508 671.224 62.768 667.048 64.064L664.888 64.82V101H650.416ZM691.356 53.156C695.172 48.188 701.544 45.704 710.472 45.704C719.4 45.704 725.772 48.188 729.588 53.156C733.404 58.052 735.312 64.964 735.312 73.892C735.312 92.828 727.032 102.296 710.472 102.296C693.912 102.296 685.632 92.828 685.632 73.892C685.632 64.964 687.54 58.052 691.356 53.156ZM702.48 86.096C703.992 88.688 706.656 89.984 710.472 89.984C714.288 89.984 716.916 88.688 718.356 86.096C719.868 83.504 720.624 79.436 720.624 73.892C720.624 68.348 719.868 64.316 718.356 61.796C716.916 59.276 714.288 58.016 710.472 58.016C706.656 58.016 703.992 59.276 702.48 61.796C701.04 64.316 700.32 68.348 700.32 73.892C700.32 79.436 701.04 83.504 702.48 86.096ZM744.408 101V25.4H758.88V101H744.408Z" fill="white"/>
<path d="M787.42 101L803.944 27.56H832.24L848.764 101H833.86L830.944 87.716H805.24L802.324 101H787.42ZM815.5 39.872L808.048 74.756H828.136L820.684 39.872H815.5ZM856.385 101V27.56H871.289V101H856.385Z" fill="#E9651E"/>
<path d="M12.942 85.889C12.7118 84.3663 12.5879 82.8436 12.5879 81.3209V43.9621C12.5879 29.5852 22.8209 17.5631 36.3823 14.7656H32.328C18.3772 14.7656 6.95801 26.1857 6.95801 40.1377V75.9207C6.95801 80.4533 8.17958 84.7381 10.2864 88.4209L12.9597 85.8712L12.942 85.889Z" fill="#F58220"/>
<path d="M107.962 21.7948L100.738 14.5533C99.375 13.1899 97.1621 13.1899 95.7988 14.5533L49.7857 60.5701L42.4385 53.2223C41.0752 51.8589 38.8622 51.8589 37.499 53.2223L29.1958 61.5085C27.8325 62.8718 27.8325 65.085 29.1958 66.4483L39.0039 76.2572L41.8719 79.1432L46.2272 83.4988C47.5904 84.8621 49.8034 84.8621 51.1666 83.4988L107.944 26.717C109.307 25.3537 109.307 23.1405 107.944 21.7771L107.962 21.7948Z" fill="white"/>
<path d="M109.52 42.5469C109.537 43.0249 109.555 43.503 109.555 43.981V81.3398C109.555 88.0856 107.306 94.318 103.5 99.3109C101.287 102.285 98.5075 104.817 95.3208 106.747C92.0809 108.73 88.4339 110.129 84.5566 110.749H88.9473C102.898 110.749 114.317 99.3286 114.317 85.3767V49.5937C114.317 46.1057 113.591 42.7947 112.299 39.7671L109.52 42.5646V42.5469Z" fill="#F58220"/>
<path d="M20.5377 121.85C17.8998 121.85 15.3858 120.876 13.456 119.123L3.25839 109.792C1.187 107.898 0.036239 105.348 0.000830627 102.586C-0.0345777 99.8418 1.06308 97.2391 3.09906 95.3091L12.9426 85.8898C12.7124 84.3671 12.5885 82.8444 12.5885 81.3217V43.963C12.5885 27.5322 25.9551 14.1645 42.3846 14.1645H79.6519L90.7878 3.02765C92.753 1.08004 95.3555 0 98.1174 0C100.879 0 103.499 1.08004 105.447 3.02765L119.893 17.4754C123.93 21.53 123.93 28.0988 119.893 32.1533L109.519 42.5465C109.537 43.0246 109.554 43.5026 109.554 43.9807V81.3394C109.554 97.7702 96.1876 111.138 79.7581 111.138H42.4023C40.2247 111.138 38.0471 110.89 35.9226 110.412L28.1682 118.592C26.203 120.664 23.4235 121.85 20.5377 121.85ZM42.4023 20.7864C29.6199 20.7864 19.2276 31.1972 19.2276 43.963V81.3217C19.2276 83.0215 19.4223 84.7566 19.8118 86.4564L20.3252 88.7227L18.3778 89.9798C18.1653 90.1214 17.9706 90.2631 17.8112 90.4224L7.70215 100.09C7.01169 100.745 6.63988 101.595 6.65759 102.515C6.65759 103.418 7.0648 104.268 7.75526 104.906L17.9529 114.219C18.661 114.874 19.5816 115.21 20.5731 115.21C21.653 115.21 22.6799 114.768 23.4057 114.024L32.0808 104.87C32.0808 104.87 32.2224 104.711 32.2932 104.622L33.6919 102.887L35.8341 103.525C37.994 104.18 40.207 104.498 42.4554 104.498H79.8112C92.5936 104.498 102.986 94.0875 102.986 81.304V43.9453C102.986 43.1485 102.951 42.3518 102.862 41.5904L102.703 40.0323L115.273 27.4614C116.742 25.9918 116.742 23.6192 115.273 22.1497L100.826 7.70193C100.118 6.99371 99.1796 6.60418 98.1705 6.60418C97.1613 6.60418 96.223 6.99371 95.5148 7.70193L82.3429 20.8572L80.8735 20.7864C80.5194 20.7686 80.1476 20.7509 79.7935 20.7509H42.4377L42.4023 20.7864Z" fill="white"/>
</svg>
